<svg version="1.1" id="Layer_1" xmlns="http://www.w3.org/2000/svg" xmlns:xlink="http://www.w3.org/1999/xlink" x="0px" y="0px"
	 width="100%" viewBox="0 0 192 192" enable-background="new 0 0 192 192" xml:space="preserve">
<path fill="#52B4CF" opacity="1.000000" stroke="none" 
	d="
M1.000000,77.000000 
	C1.000000,51.333340 1.000000,26.166679 1.000000,1.000014 
	C64.999977,1.000009 128.999954,1.000009 192.999954,1.000005 
	C192.999969,64.999962 192.999969,128.999924 192.999985,192.999908 
	C129.000046,192.999939 65.000107,192.999939 1.000078,192.999969 
	C1.000000,154.500000 1.000000,116.000000 1.000000,77.000000 
M119.908447,72.747536 
	C119.667747,73.088821 119.448387,73.709763 119.183182,73.729996 
	C114.153809,74.113762 109.108391,74.316971 104.090080,74.803108 
	C101.776260,75.027260 99.513252,75.775909 96.187149,76.519150 
	C97.691452,73.792702 98.520966,72.193794 99.436333,70.645653 
	C105.549774,60.306068 109.246658,49.162251 110.336601,37.208096 
	C111.277489,26.888624 104.470139,19.295076 95.483185,20.419825 
	C89.926804,21.115227 84.383347,21.925077 78.817543,22.531828 
	C61.488472,24.420937 45.153133,30.237825 28.447756,34.708565 
	C18.282526,37.429016 14.233405,45.096481 23.746994,54.249920 
	C30.623343,60.865959 36.147633,68.891258 42.239353,76.317238 
	C45.717960,80.557755 48.798088,85.185295 52.661114,89.032631 
	C56.194126,92.551300 57.070034,96.216637 54.734756,100.230850 
	C51.485790,105.815651 48.007030,111.332687 44.035744,116.417229 
	C36.455399,126.122551 28.281769,135.365616 20.740381,145.099579 
	C18.483797,148.012238 16.869009,151.798859 16.194078,155.415359 
	C15.804564,157.502518 17.268734,161.093918 19.009296,162.115036 
	C21.000679,163.283340 24.543343,163.100449 26.825226,162.127914 
	C29.254236,161.092697 31.498228,158.763123 32.958378,156.452347 
	C43.628990,139.565506 54.387760,122.718727 64.414955,105.450645 
	C67.369965,100.361755 70.736542,97.277664 76.586761,95.961182 
	C79.209084,104.279030 81.632500,112.561317 84.437218,120.712395 
	C87.981155,131.011780 91.905350,132.934418 102.222145,129.917786 
	C107.919441,128.251892 113.597900,126.521561 120.320770,124.510391 
	C117.587807,130.391388 115.232086,135.260895 113.047821,140.206116 
	C109.462006,148.324509 112.446487,157.161606 120.448242,160.892960 
	C128.285339,164.547516 136.302155,167.858536 144.395096,170.909119 
	C150.663574,173.271942 156.926712,171.290939 159.945984,165.474655 
	C164.460068,156.778732 168.535233,147.810455 172.119293,138.691620 
	C174.588593,132.408966 171.512253,123.876373 165.798615,121.315605 
	C155.072693,116.508423 144.015686,112.439957 131.971542,107.613533 
	C129.277344,98.803871 126.088753,88.377609 122.621262,77.039360 
	C124.619026,78.340736 125.819313,79.122620 127.580513,80.428261 
	C138.278976,81.768074 148.946930,83.623077 159.687057,84.258949 
	C166.378159,84.655098 170.775040,79.820297 171.929108,72.704887 
	C173.208084,64.819298 174.190384,56.886005 175.352005,48.980850 
	C176.750015,39.467159 170.834579,31.353844 161.254333,30.126593 
	C153.331085,29.111607 145.372452,28.333014 137.411636,27.661472 
	C128.429199,26.903748 123.510582,30.684750 122.109177,39.609982 
	C120.767036,48.157707 119.675842,56.751728 118.773216,65.356750 
	C118.545967,67.523155 119.461792,69.809456 119.908447,72.747536 
M50.365490,161.848526 
	C48.982605,162.720993 47.599724,163.593475 46.216839,164.465942 
	C59.847584,163.683334 81.313599,144.404709 80.790382,134.261429 
	C76.357620,139.486313 72.460365,145.109039 67.532310,149.600891 
	C62.547443,154.144547 56.542084,157.568604 50.365490,161.848526 
M70.857552,125.606461 
	C64.445053,133.637543 58.032558,141.668610 51.620060,149.699692 
	C61.437363,143.283463 69.301949,135.276474 73.859802,124.553352 
	C73.532051,124.251602 73.204308,123.949844 72.876564,123.648087 
	C72.320549,124.120369 71.764526,124.592644 70.857552,125.606461 
M149.127289,98.203682 
	C147.085068,97.706085 145.042831,97.208488 143.000610,96.710892 
	C142.952286,97.020905 142.903976,97.330917 142.855652,97.640930 
	C150.811005,102.671112 158.766342,107.701294 166.721695,112.731468 
	C167.084213,112.205391 167.446732,111.679306 167.809250,111.153229 
	C161.809189,106.953247 155.809128,102.753273 149.127289,98.203682 
M159.906250,92.630966 
	C157.851151,92.162796 155.796051,91.694626 153.740952,91.226456 
	C153.620087,91.684319 153.499207,92.142189 153.378326,92.600052 
	C159.458389,95.353912 165.538467,98.107773 171.618530,100.861633 
	C171.910767,100.308075 172.203003,99.754509 172.495239,99.200951 
	C168.541031,97.093109 164.586838,94.985268 159.906250,92.630966 
M79.451736,153.938080 
	C77.573769,155.945572 75.695801,157.953064 73.817841,159.960556 
	C74.203407,160.291275 74.588982,160.621994 74.974548,160.952713 
	C79.837700,157.992569 84.164566,154.540649 86.157539,148.948547 
	C85.701561,148.498856 85.245575,148.049164 84.789589,147.599472 
	C83.176796,149.544159 81.564011,151.488846 79.451736,153.938080 
M117.213760,28.560575 
	C119.828430,29.491802 127.920670,24.950359 129.021286,20.360626 
	C125.203857,22.898640 121.386436,25.436651 117.213760,28.560575 
z"/>
<path fill="#16334F" opacity="1.000000" stroke="none" 
	d="
M127.019592,79.904503 
	C125.819313,79.122620 124.619026,78.340736 122.621262,77.039360 
	C126.088753,88.377609 129.277344,98.803871 131.971542,107.613533 
	C144.015686,112.439957 155.072693,116.508423 165.798615,121.315605 
	C171.512253,123.876373 174.588593,132.408966 172.119293,138.691620 
	C168.535233,147.810455 164.460068,156.778732 159.945984,165.474655 
	C156.926712,171.290939 150.663574,173.271942 144.395096,170.909119 
	C136.302155,167.858536 128.285339,164.547516 120.448242,160.892960 
	C112.446487,157.161606 109.462006,148.324509 113.047821,140.206116 
	C115.232086,135.260895 117.587807,130.391388 120.320770,124.510391 
	C113.597900,126.521561 107.919441,128.251892 102.222145,129.917786 
	C91.905350,132.934418 87.981155,131.011780 84.437218,120.712395 
	C81.632500,112.561317 79.209084,104.279030 76.586761,95.961182 
	C70.736542,97.277664 67.369965,100.361755 64.414955,105.450645 
	C54.387760,122.718727 43.628990,139.565506 32.958378,156.452347 
	C31.498228,158.763123 29.254236,161.092697 26.825226,162.127914 
	C24.543343,163.100449 21.000679,163.283340 19.009296,162.115036 
	C17.268734,161.093918 15.804564,157.502518 16.194078,155.415359 
	C16.869009,151.798859 18.483797,148.012238 20.740381,145.099579 
	C28.281769,135.365616 36.455399,126.122551 44.035744,116.417229 
	C48.007030,111.332687 51.485790,105.815651 54.734756,100.230850 
	C57.070034,96.216637 56.194126,92.551300 52.661114,89.032631 
	C48.798088,85.185295 45.717960,80.557755 42.239353,76.317238 
	C36.147633,68.891258 30.623343,60.865959 23.746994,54.249920 
	C14.233405,45.096481 18.282526,37.429016 28.447756,34.708565 
	C45.153133,30.237825 61.488472,24.420937 78.817543,22.531828 
	C84.383347,21.925077 89.926804,21.115227 95.483185,20.419825 
	C104.470139,19.295076 111.277489,26.888624 110.336601,37.208096 
	C109.246658,49.162251 105.549774,60.306068 99.436333,70.645653 
	C98.520966,72.193794 97.691452,73.792702 96.187149,76.519150 
	C99.513252,75.775909 101.776260,75.027260 104.090080,74.803108 
	C109.108391,74.316971 114.153809,74.113762 119.183182,73.729996 
	C119.448387,73.709763 119.667747,73.088821 120.314590,72.378616 
	C121.588142,71.961700 122.455559,71.913719 123.532745,71.940414 
	C123.998489,72.213821 124.117912,72.474991 123.955933,73.115479 
	C123.526115,74.311615 123.241142,75.190872 122.656624,76.043396 
	C122.117249,76.277267 121.877419,76.537888 121.637589,76.798508 
	C121.911331,76.929794 122.185074,77.061081 122.458817,77.192368 
	C122.614510,76.808388 122.770195,76.424400 123.255325,75.982986 
	C124.415047,75.604851 125.245338,75.284149 126.299744,75.029373 
	C126.818466,75.254822 126.998474,75.498863 127.050293,76.235016 
	C127.030998,77.729904 127.025299,78.817207 127.019592,79.904503 
M116.636452,152.323212 
	C116.636452,152.323212 116.673981,152.352402 116.740562,153.046188 
	C118.686920,154.736099 120.380066,156.971542 122.626778,158.014343 
	C129.560028,161.232407 136.694565,164.019638 143.769867,166.928070 
	C150.628464,169.747437 155.275757,168.028748 158.479156,161.288742 
	C161.762756,154.380020 165.218628,147.511475 167.833649,140.346008 
	C168.971939,137.226974 168.199142,133.410477 167.923172,129.279129 
	C165.989914,127.239975 164.423874,124.416428 162.055130,123.307526 
	C154.708359,119.868179 147.107132,116.946266 139.507401,114.081528 
	C133.195770,111.702339 130.223587,112.772636 127.204758,118.612938 
	C123.322960,126.122749 119.447090,133.670944 116.256340,141.483459 
	C115.140724,144.215057 116.064339,147.779465 116.006195,151.486847 
	C116.209862,151.751144 116.413528,152.015457 116.636452,152.323212 
M59.399414,97.620895 
	C55.400749,104.468239 51.984486,111.750053 47.272995,118.065620 
	C39.322086,128.723495 30.398033,138.650589 22.230259,149.154846 
	C20.163303,151.813080 16.974943,156.067307 20.731062,158.858902 
	C24.737865,161.836823 28.009470,157.620728 29.909086,154.551971 
	C41.290878,136.164963 52.367393,117.589012 64.012070,98.638817 
	C66.713043,97.049484 69.483170,95.564018 72.087738,93.829880 
	C73.533173,92.867508 74.702118,91.489861 75.892746,90.394112 
	C71.473396,90.634628 66.148682,92.348122 64.679192,90.675201 
	C62.398495,88.078766 62.742119,83.175941 61.982510,79.249062 
	C61.952469,79.093758 62.005337,78.917145 62.041000,78.755173 
	C65.920570,61.136780 74.833328,46.339607 87.791985,34.020576 
	C91.177307,30.802345 95.813873,26.725409 100.566330,29.786194 
	C104.971451,32.623283 103.151367,38.278038 102.378448,42.823822 
	C99.962700,57.031715 92.725525,68.874092 83.503410,80.089478 
	C83.814629,80.214836 84.125839,80.340195 85.179176,80.366989 
	C90.659851,80.225311 92.526413,75.857208 94.765114,72.037300 
	C101.389725,60.733665 106.450668,48.865204 106.882263,35.526825 
	C107.028366,31.011513 105.869629,26.593258 101.378708,24.603207 
	C97.229790,22.764708 92.564346,22.981844 89.258598,26.376627 
	C82.802383,33.006737 75.819099,39.424831 70.777985,47.067776 
	C60.864429,62.097958 54.571678,78.432419 59.399414,97.620895 
M124.750954,115.707077 
	C126.026047,113.194237 128.828339,110.302155 128.314651,108.233513 
	C125.958084,98.743698 122.783798,89.447357 119.665779,80.161232 
	C118.517242,76.740677 115.701797,75.147964 112.113571,76.138596 
	C102.667725,78.746407 93.249672,81.462952 83.872490,84.307419 
	C80.212769,85.417557 78.083374,88.287712 79.233887,91.989235 
	C82.573059,102.732269 86.346489,113.340309 90.044350,124.728951 
	C92.104179,128.112045 95.082146,128.609787 98.619019,127.521912 
	C105.230438,125.488350 111.957581,123.769272 118.416801,121.335983 
	C120.686768,120.480850 122.312172,117.914703 124.750954,115.707077 
M85.664604,43.981800 
	C84.658455,44.074566 83.166252,43.776825 82.726257,44.324467 
	C80.169785,47.506355 77.860733,50.887032 75.055580,54.771660 
	C80.434387,58.228600 85.238182,61.315979 90.693230,64.821915 
	C93.023216,59.704544 95.031937,55.292763 97.063057,50.831779 
	C93.062035,48.421631 89.666359,46.376129 85.664604,43.981800 
M69.489929,66.066704 
	C67.073074,69.733315 68.336815,72.121613 72.034142,73.866730 
	C74.128548,74.855278 75.998878,76.342339 78.128212,77.222366 
	C79.091797,77.620598 80.965096,77.543121 81.523926,76.899040 
	C84.054207,73.982758 86.262535,70.787125 88.605217,67.667534 
	C83.219223,64.207581 78.533028,61.197174 73.549324,57.995651 
	C72.196228,60.674316 71.006393,63.029785 69.489929,66.066704 
M57.005562,66.978714 
	C53.601551,63.707657 50.197536,60.436604 46.601627,56.981144 
	C41.614960,68.798309 44.437332,78.746437 53.636673,84.269341 
	C54.752121,78.821686 55.883652,73.295479 57.005562,66.978714 
M49.982918,48.545422 
	C49.589962,50.454823 48.206394,53.201611 48.984005,54.121502 
	C51.649063,57.274204 55.072155,59.786129 58.503735,62.804043 
	C60.882446,57.827774 62.860912,53.688820 65.030876,49.149258 
	C62.093731,46.547085 59.186108,43.971066 55.809799,40.979813 
	C53.753075,43.595692 52.054272,45.756344 49.982918,48.545422 
M70.076042,41.532249 
	C71.809929,39.173820 73.543823,36.815395 76.165588,33.249287 
	C72.682304,32.036541 69.299973,29.604137 67.334068,30.452812 
	C63.928471,31.923000 61.400291,35.425674 58.228230,38.328323 
	C61.335915,41.140263 63.969769,43.523468 66.789055,46.074448 
	C67.947075,44.490444 68.814949,43.303333 70.076042,41.532249 
M45.689392,49.152180 
	C47.886406,45.665890 50.083420,42.179600 52.257015,38.730469 
	C45.395641,31.912642 42.551910,32.884689 36.876431,44.379131 
	C39.586700,46.103916 42.393124,47.889889 45.689392,49.152180 
M33.949944,59.253490 
	C36.091423,61.546806 38.232899,63.840118 40.327202,66.082916 
	C42.899380,58.348278 44.854706,50.987000 34.547085,47.437679 
	C32.783756,51.057323 30.157139,54.523994 33.949944,59.253490 
M90.588753,35.983387 
	C88.901001,36.999950 87.213249,38.016514 85.525497,39.033077 
	C85.921791,39.612614 86.318077,40.192146 86.714363,40.771683 
	C90.253014,42.851437 93.791664,44.931187 98.460823,47.675369 
	C98.763634,42.113659 99.011169,37.567280 99.340858,31.511919 
	C95.527153,33.388783 93.361000,34.454826 90.588753,35.983387 
M65.717690,77.592155 
	C66.083900,81.030396 65.361351,86.619850 67.038185,87.468513 
	C70.771996,89.358253 73.809982,85.488602 76.332169,82.559639 
	C76.636070,82.206726 76.807838,81.740036 77.223877,81.000916 
	C74.214989,79.187614 71.302849,77.322136 68.255013,75.713821 
	C67.792679,75.469849 66.699867,76.420662 65.717690,77.592155 
M21.928892,42.840645 
	C21.455818,47.940872 24.960812,50.340637 28.407284,53.292645 
	C29.735590,49.749931 30.830265,46.830341 32.062599,43.543598 
	C28.685190,42.258083 26.386940,37.062775 21.928892,42.840645 
M54.079063,35.304699 
	C56.927963,33.570488 59.776867,31.836275 62.625767,30.102062 
	C62.390865,29.707552 62.155968,29.313042 61.921066,28.918531 
	C60.034111,29.366280 58.133423,29.763899 56.264149,30.276171 
	C54.470264,30.767782 52.708958,31.378256 50.270229,32.144970 
	C51.797497,33.435162 52.652172,34.157166 54.079063,35.304699 
M80.994637,28.641602 
	C81.431831,27.905447 81.869026,27.169294 82.673073,25.815453 
	C79.171158,26.211430 76.417336,26.522816 72.812309,26.930452 
	C75.707886,29.402039 77.154541,33.324333 80.994637,28.641602 
M31.950731,37.577602 
	C32.213535,38.557266 32.476337,39.536930 32.739143,40.516598 
	C34.529480,39.335705 36.319813,38.154816 38.110146,36.973927 
	C37.808678,36.488617 37.507210,36.003307 37.205746,35.517998 
	C35.619186,36.125717 34.032631,36.733433 31.950731,37.577602 
z"/>
<path fill="#163550" opacity="1.000000" stroke="none" 
	d="
M127.300056,80.166382 
	C127.025299,78.817207 127.030998,77.729904 127.399979,76.381363 
	C138.511688,77.653664 149.224625,79.633171 160.026688,80.492676 
	C164.123077,80.818619 167.253281,77.223419 167.984955,72.807571 
	C169.448517,63.974594 170.963547,55.132141 171.846298,46.232994 
	C172.081345,43.863251 170.100815,41.273743 168.976944,38.477463 
	C166.594711,36.854733 164.489258,34.700546 162.130722,34.373932 
	C153.241470,33.142956 144.282227,32.236828 135.320908,31.826216 
	C132.905746,31.715551 128.504593,33.424488 128.220230,34.911236 
	C125.968903,46.681580 124.485115,58.599113 122.809219,70.477585 
	C122.748558,70.907585 123.141457,71.401566 123.322975,71.865730 
	C122.455559,71.913719 121.588142,71.961700 120.286522,72.025177 
	C119.461792,69.809456 118.545967,67.523155 118.773216,65.356750 
	C119.675842,56.751728 120.767036,48.157707 122.109177,39.609982 
	C123.510582,30.684750 128.429199,26.903748 137.411636,27.661472 
	C145.372452,28.333014 153.331085,29.111607 161.254333,30.126593 
	C170.834579,31.353844 176.750015,39.467159 175.352005,48.980850 
	C174.190384,56.886005 173.208084,64.819298 171.929108,72.704887 
	C170.775040,79.820297 166.378159,84.655098 159.687057,84.258949 
	C148.946930,83.623077 138.278976,81.768074 127.300056,80.166382 
z"/>
<path fill="#F1F5DF" opacity="1.000000" stroke="none" 
	d="
M50.674622,161.665817 
	C56.542084,157.568604 62.547443,154.144547 67.532310,149.600891 
	C72.460365,145.109039 76.357620,139.486313 80.790382,134.261429 
	C81.313599,144.404709 59.847584,163.683334 46.216839,164.465942 
	C47.599724,163.593475 48.982605,162.720993 50.674622,161.665817 
z"/>
<path fill="#EFF4DF" opacity="1.000000" stroke="none" 
	d="
M71.033035,125.335693 
	C71.764526,124.592644 72.320549,124.120369 72.876564,123.648087 
	C73.204308,123.949844 73.532051,124.251602 73.859802,124.553352 
	C69.301949,135.276474 61.437363,143.283463 51.620060,149.699692 
	C58.032558,141.668610 64.445053,133.637543 71.033035,125.335693 
z"/>
<path fill="#ECF3E0" opacity="1.000000" stroke="none" 
	d="
M149.468170,98.378487 
	C155.809128,102.753273 161.809189,106.953247 167.809250,111.153229 
	C167.446732,111.679306 167.084213,112.205391 166.721695,112.731468 
	C158.766342,107.701294 150.811005,102.671112 142.855652,97.640930 
	C142.903976,97.330917 142.952286,97.020905 143.000610,96.710892 
	C145.042831,97.208488 147.085068,97.706085 149.468170,98.378487 
z"/>
<path fill="#E9F3E3" opacity="1.000000" stroke="none" 
	d="
M160.269440,92.754196 
	C164.586838,94.985268 168.541031,97.093109 172.495239,99.200951 
	C172.203003,99.754509 171.910767,100.308075 171.618530,100.861633 
	C165.538467,98.107773 159.458389,95.353912 153.378326,92.600052 
	C153.499207,92.142189 153.620087,91.684319 153.740952,91.226456 
	C155.796051,91.694626 157.851151,92.162796 160.269440,92.754196 
z"/>
<path fill="#EAF3E3" opacity="1.000000" stroke="none" 
	d="
M79.701477,153.685791 
	C81.564011,151.488846 83.176796,149.544159 84.789589,147.599472 
	C85.245575,148.049164 85.701561,148.498856 86.157539,148.948547 
	C84.164566,154.540649 79.837700,157.992569 74.974548,160.952713 
	C74.588982,160.621994 74.203407,160.291275 73.817841,159.960556 
	C75.695801,157.953064 77.573769,155.945572 79.701477,153.685791 
z"/>
<path fill="#E7F3E4" opacity="1.000000" stroke="none" 
	d="
M117.391388,28.267620 
	C121.386436,25.436651 125.203857,22.898640 129.021286,20.360626 
	C127.920670,24.950359 119.828430,29.491802 117.391388,28.267620 
z"/>
<path fill="#FBF4DC" opacity="1.000000" stroke="none" 
	d="
M123.532745,71.940414 
	C123.141457,71.401566 122.748558,70.907585 122.809219,70.477585 
	C124.485115,58.599113 125.968903,46.681580 128.220230,34.911236 
	C128.504593,33.424488 132.905746,31.715551 135.320908,31.826216 
	C144.282227,32.236828 153.241470,33.142956 162.130722,34.373932 
	C164.489258,34.700546 166.594711,36.854733 168.940857,38.914291 
	C167.430161,49.604412 165.936707,59.576195 164.106934,69.485878 
	C162.998932,75.486618 159.825363,77.632774 153.872711,76.881989 
	C144.207687,75.662987 134.557617,74.325333 124.703987,72.968391 
	C124.506729,72.899025 124.100777,72.798592 124.100777,72.798592 
	C124.117912,72.474991 123.998489,72.213821 123.532745,71.940414 
M147.279327,45.759102 
	C148.619568,46.349400 150.465866,46.571358 151.210892,47.594906 
	C154.152374,51.635994 156.645950,49.493126 159.394989,47.679070 
	C156.272232,40.784916 150.259781,37.734108 143.040985,39.168335 
	C136.228348,40.521866 131.698303,47.120251 131.599991,55.833054 
	C131.518768,63.032360 135.381866,68.140991 142.057144,69.661774 
	C148.273193,71.077927 153.962311,68.827263 156.485764,63.684143 
	C155.241318,62.558414 153.920227,61.363358 152.673233,60.235317 
	C150.679382,61.292610 149.047028,62.564152 147.206848,63.052357 
	C142.933701,64.186035 139.513031,61.885368 138.670502,57.688499 
	C137.427856,51.498608 140.563797,46.666157 147.279327,45.759102 
z"/>
<path fill="#FBF4DC" opacity="1.000000" stroke="none" 
	d="
M116.056702,150.963562 
	C116.064339,147.779465 115.140724,144.215057 116.256340,141.483459 
	C119.447090,133.670944 123.322960,126.122749 127.204758,118.612938 
	C130.223587,112.772636 133.195770,111.702339 139.507401,114.081528 
	C147.107132,116.946266 154.708359,119.868179 162.055130,123.307526 
	C164.423874,124.416428 165.989914,127.239975 167.825073,129.822678 
	C163.373840,139.839188 159.121033,149.360031 154.628983,158.766632 
	C152.048248,164.170837 149.316711,165.124435 143.766495,163.130203 
	C142.367264,162.627457 141.036652,161.937149 139.651855,161.390411 
	C131.996445,158.367935 124.334007,155.363205 116.673981,152.352402 
	C116.673981,152.352402 116.636452,152.323212 116.670029,152.042709 
	C116.487968,151.495987 116.272339,151.229782 116.056702,150.963562 
M135.121185,131.619598 
	C130.926590,136.257187 126.732002,140.894775 122.240349,145.860794 
	C125.868668,148.213745 128.374191,149.991058 131.363998,146.062057 
	C132.085938,145.113327 134.956924,144.953110 136.353439,145.556183 
	C138.644791,146.545685 142.611755,146.410660 141.997040,150.578262 
	C141.307205,155.255447 144.125565,155.707367 148.080200,156.006851 
	C149.003464,147.177414 149.831940,138.601700 150.831680,130.045990 
	C151.183868,127.032074 149.925598,125.632126 147.274948,124.391647 
	C144.503799,123.094765 142.704819,123.484650 140.832886,125.741188 
	C139.243423,127.657234 137.363571,129.332397 135.121185,131.619598 
z"/>
<path fill="#F7F3DC" opacity="1.000000" stroke="none" 
	d="
M89.949539,124.001312 
	C86.346489,113.340309 82.573059,102.732269 79.233887,91.989235 
	C78.083374,88.287712 80.212769,85.417557 83.872490,84.307419 
	C93.249672,81.462952 102.667725,78.746407 112.113571,76.138596 
	C115.701797,75.147964 118.517242,76.740677 119.665779,80.161232 
	C122.783798,89.447357 125.958084,98.743698 128.314651,108.233513 
	C128.828339,110.302155 126.026047,113.194237 124.103958,115.956245 
	C116.980667,118.291740 110.588440,120.718124 103.999100,122.347183 
	C99.457199,123.470055 94.642380,123.489006 89.949539,124.001312 
M115.980659,111.676971 
	C116.743004,110.391747 118.403709,108.852859 118.123909,107.861893 
	C116.095970,100.679649 113.610847,93.628128 111.417038,86.490181 
	C110.671646,84.064934 109.168953,82.856247 107.133179,84.263603 
	C106.015205,85.036461 105.345703,87.289627 105.453430,88.805756 
	C105.608482,90.987885 106.655548,93.106628 107.420723,95.570656 
	C103.999146,96.560631 101.222260,97.364075 98.524353,98.144669 
	C93.873695,87.543449 93.873695,87.543449 88.816658,90.961090 
	C91.475105,99.512383 94.162720,108.157471 96.999115,117.281143 
	C99.437393,116.291855 101.174522,115.587051 103.012390,114.841370 
	C102.028954,111.214493 101.183243,108.095551 100.262047,104.698219 
	C103.527916,103.595451 106.264030,102.671570 109.260513,101.659767 
	C110.267136,104.619217 110.830215,107.076706 111.951843,109.245300 
	C112.542580,110.387459 114.108849,111.025047 115.980659,111.676971 
z"/>
<path fill="#DF524D" opacity="1.000000" stroke="none" 
	d="
M83.888824,79.900787 
	C92.725525,68.874092 99.962700,57.031715 102.378448,42.823822 
	C103.151367,38.278038 104.971451,32.623283 100.566330,29.786194 
	C95.813873,26.725409 91.177307,30.802345 87.791985,34.020576 
	C74.833328,46.339607 65.920570,61.136780 62.041000,78.755173 
	C62.005337,78.917145 61.952469,79.093758 61.982510,79.249062 
	C62.742119,83.175941 62.398495,88.078766 64.679192,90.675201 
	C66.148682,92.348122 71.473396,90.634628 75.892746,90.394112 
	C74.702118,91.489861 73.533173,92.867508 72.087738,93.829880 
	C69.483170,95.564018 66.713043,97.049484 63.447556,98.711014 
	C61.843815,98.198471 60.804585,97.613716 59.765358,97.028961 
	C54.571678,78.432419 60.864429,62.097958 70.777985,47.067776 
	C75.819099,39.424831 82.802383,33.006737 89.258598,26.376627 
	C92.564346,22.981844 97.229790,22.764708 101.378708,24.603207 
	C105.869629,26.593258 107.028366,31.011513 106.882263,35.526825 
	C106.450668,48.865204 101.389725,60.733665 94.765114,72.037300 
	C92.526413,75.857208 90.659851,80.225311 84.673431,80.272774 
	C84.167679,80.178558 83.888824,79.900787 83.888824,79.900787 
z"/>
<path fill="#18ABAF" opacity="1.000000" stroke="none" 
	d="
M59.582386,97.324928 
	C60.804585,97.613716 61.843815,98.198471 63.214645,98.929810 
	C52.367393,117.589012 41.290878,136.164963 29.909086,154.551971 
	C28.009470,157.620728 24.737865,161.836823 20.731062,158.858902 
	C16.974943,156.067307 20.163303,151.813080 22.230259,149.154846 
	C30.398033,138.650589 39.322086,128.723495 47.272995,118.065620 
	C51.984486,111.750053 55.400749,104.468239 59.582386,97.324928 
z"/>
<path fill="#C7BFA9" opacity="1.000000" stroke="none" 
	d="
M116.707275,152.699295 
	C124.334007,155.363205 131.996445,158.367935 139.651855,161.390411 
	C141.036652,161.937149 142.367264,162.627457 143.766495,163.130203 
	C149.316711,165.124435 152.048248,164.170837 154.628983,158.766632 
	C159.121033,149.360031 163.373840,139.839188 168.010620,130.138489 
	C168.199142,133.410477 168.971939,137.226974 167.833649,140.346008 
	C165.218628,147.511475 161.762756,154.380020 158.479156,161.288742 
	C155.275757,168.028748 150.628464,169.747437 143.769867,166.928070 
	C136.694565,164.019638 129.560028,161.232407 122.626778,158.014343 
	C120.380066,156.971542 118.686920,154.736099 116.707275,152.699295 
z"/>
<path fill="#C5BEA8" opacity="1.000000" stroke="none" 
	d="
M124.901245,73.037758 
	C134.557617,74.325333 144.207687,75.662987 153.872711,76.881989 
	C159.825363,77.632774 162.998932,75.486618 164.106934,69.485878 
	C165.936707,59.576195 167.430161,49.604412 169.101425,39.221966 
	C170.100815,41.273743 172.081345,43.863251 171.846298,46.232994 
	C170.963547,55.132141 169.448517,63.974594 167.984955,72.807571 
	C167.253281,77.223419 164.123077,80.818619 160.026688,80.492676 
	C149.224625,79.633171 138.511688,77.653664 127.413574,75.973770 
	C126.998474,75.498863 126.818466,75.254822 126.173798,74.771454 
	C125.516243,73.977654 125.208748,73.507706 124.901245,73.037758 
z"/>
<path fill="#50B1CD" opacity="1.000000" stroke="none" 
	d="
M85.967636,44.156212 
	C89.666359,46.376129 93.062035,48.421631 97.063057,50.831779 
	C95.031937,55.292763 93.023216,59.704544 90.693230,64.821915 
	C85.238182,61.315979 80.434387,58.228600 75.055580,54.771660 
	C77.860733,50.887032 80.169785,47.506355 82.726257,44.324467 
	C83.166252,43.776825 84.658455,44.074566 85.967636,44.156212 
z"/>
<path fill="#50B1CD" opacity="1.000000" stroke="none" 
	d="
M69.653244,65.725983 
	C71.006393,63.029785 72.196228,60.674316 73.549324,57.995651 
	C78.533028,61.197174 83.219223,64.207581 88.605217,67.667534 
	C86.262535,70.787125 84.054207,73.982758 81.523926,76.899040 
	C80.965096,77.543121 79.091797,77.620598 78.128212,77.222366 
	C75.998878,76.342339 74.128548,74.855278 72.034142,73.866730 
	C68.336815,72.121613 67.073074,69.733315 69.653244,65.725983 
z"/>
<path fill="#4FB1CD" opacity="1.000000" stroke="none" 
	d="
M57.010376,67.373993 
	C55.883652,73.295479 54.752121,78.821686 53.636673,84.269341 
	C44.437332,78.746437 41.614960,68.798309 46.601627,56.981144 
	C50.197536,60.436604 53.601551,63.707657 57.010376,67.373993 
z"/>
<path fill="#50B1CD" opacity="1.000000" stroke="none" 
	d="
M50.169189,48.231209 
	C52.054272,45.756344 53.753075,43.595692 55.809799,40.979813 
	C59.186108,43.971066 62.093731,46.547085 65.030876,49.149258 
	C62.860912,53.688820 60.882446,57.827774 58.503735,62.804043 
	C55.072155,59.786129 51.649063,57.274204 48.984005,54.121502 
	C48.206394,53.201611 49.589962,50.454823 50.169189,48.231209 
z"/>
<path fill="#50B1CD" opacity="1.000000" stroke="none" 
	d="
M69.879425,41.824234 
	C68.814949,43.303333 67.947075,44.490444 66.789055,46.074448 
	C63.969769,43.523468 61.335915,41.140263 58.228230,38.328323 
	C61.400291,35.425674 63.928471,31.923000 67.334068,30.452812 
	C69.299973,29.604137 72.682304,32.036541 76.165588,33.249287 
	C73.543823,36.815395 71.809929,39.173820 69.879425,41.824234 
z"/>
<path fill="#4FB0CD" opacity="1.000000" stroke="none" 
	d="
M45.444469,49.414021 
	C42.393124,47.889889 39.586700,46.103916 36.876431,44.379131 
	C42.551910,32.884689 45.395641,31.912642 52.257015,38.730469 
	C50.083420,42.179600 47.886406,45.665890 45.444469,49.414021 
z"/>
<path fill="#4FB0CC" opacity="1.000000" stroke="none" 
	d="
M33.676582,58.988968 
	C30.157139,54.523994 32.783756,51.057323 34.547085,47.437679 
	C44.854706,50.987000 42.899380,58.348278 40.327202,66.082916 
	C38.232899,63.840118 36.091423,61.546806 33.676582,58.988968 
z"/>
<path fill="#C6BEA8" opacity="1.000000" stroke="none" 
	d="
M89.996941,124.365128 
	C94.642380,123.489006 99.457199,123.470055 103.999100,122.347183 
	C110.588440,120.718124 116.980667,118.291740 123.844421,116.167618 
	C122.312172,117.914703 120.686768,120.480850 118.416801,121.335983 
	C111.957581,123.769272 105.230438,125.488350 98.619019,127.521912 
	C95.082146,128.609787 92.104179,128.112045 89.996941,124.365128 
z"/>
<path fill="#50B1CE" opacity="1.000000" stroke="none" 
	d="
M90.891800,35.752129 
	C93.361000,34.454826 95.527153,33.388783 99.340858,31.511919 
	C99.011169,37.567280 98.763634,42.113659 98.460823,47.675369 
	C93.791664,44.931187 90.253014,42.851437 86.714363,40.771683 
	C86.318077,40.192146 85.921791,39.612614 85.525497,39.033077 
	C87.213249,38.016514 88.901001,36.999950 90.891800,35.752129 
z"/>
<path fill="#4EAFCB" opacity="1.000000" stroke="none" 
	d="
M65.808182,77.205498 
	C66.699867,76.420662 67.792679,75.469849 68.255013,75.713821 
	C71.302849,77.322136 74.214989,79.187614 77.223877,81.000916 
	C76.807838,81.740036 76.636070,82.206726 76.332169,82.559639 
	C73.809982,85.488602 70.771996,89.358253 67.038185,87.468513 
	C65.361351,86.619850 66.083900,81.030396 65.808182,77.205498 
z"/>
<path fill="#50B1CD" opacity="1.000000" stroke="none" 
	d="
M22.079239,42.471573 
	C26.386940,37.062775 28.685190,42.258083 32.062599,43.543598 
	C30.830265,46.830341 29.735590,49.749931 28.407284,53.292645 
	C24.960812,50.340637 21.455818,47.940872 22.079239,42.471573 
z"/>
<path fill="#4DABC7" opacity="1.000000" stroke="none" 
	d="
M53.792953,35.091934 
	C52.652172,34.157166 51.797497,33.435162 50.270229,32.144970 
	C52.708958,31.378256 54.470264,30.767782 56.264149,30.276171 
	C58.133423,29.763899 60.034111,29.366280 61.921066,28.918531 
	C62.155968,29.313042 62.390865,29.707552 62.625767,30.102062 
	C59.776867,31.836275 56.927963,33.570488 53.792953,35.091934 
z"/>
<path fill="#4BA7C3" opacity="1.000000" stroke="none" 
	d="
M80.736740,28.895592 
	C77.154541,33.324333 75.707886,29.402039 72.812309,26.930452 
	C76.417336,26.522816 79.171158,26.211430 82.673073,25.815453 
	C81.869026,27.169294 81.431831,27.905447 80.736740,28.895592 
z"/>
<path fill="#13334F" opacity="1.000000" stroke="none" 
	d="
M32.198402,37.459373 
	C34.032631,36.733433 35.619186,36.125717 37.205746,35.517998 
	C37.507210,36.003307 37.808678,36.488617 38.110146,36.973927 
	C36.319813,38.154816 34.529480,39.335705 32.739143,40.516594 
	C32.476337,39.536930 32.213535,38.557266 32.198402,37.459373 
z"/>
<path fill="#163550" opacity="1.000000" stroke="none" 
	d="
M124.703995,72.968391 
	C125.208748,73.507706 125.516243,73.977654 125.949692,74.705521 
	C125.245338,75.284149 124.415047,75.604851 123.288147,75.964485 
	C122.991531,76.003418 122.956177,76.070137 122.956177,76.070137 
	C123.241142,75.190872 123.526115,74.311615 123.955933,73.115479 
	C124.100777,72.798592 124.506729,72.899025 124.703995,72.968391 
z"/>
<path fill="#52B4CF" opacity="1.000000" stroke="none" 
	d="
M122.958710,76.021919 
	C122.770195,76.424400 122.614510,76.808388 122.458817,77.192368 
	C122.185074,77.061081 121.911331,76.929794 121.637589,76.798508 
	C121.877419,76.537888 122.117249,76.277267 122.656631,76.043396 
	C122.956177,76.070137 122.991531,76.003418 122.958710,76.021919 
z"/>
<path fill="#DF524D" opacity="1.000000" stroke="none" 
	d="
M84.302368,80.322052 
	C84.125839,80.340195 83.814629,80.214836 83.696121,79.995132 
	C83.888824,79.900787 84.167679,80.178558 84.302368,80.322052 
z"/>
<path fill="#C7BFA9" opacity="1.000000" stroke="none" 
	d="
M116.031448,151.225204 
	C116.272339,151.229782 116.487968,151.495987 116.660400,152.020981 
	C116.413528,152.015457 116.209862,151.751144 116.031448,151.225204 
z"/>
<path fill="#EC5A52" opacity="1.000000" stroke="none" 
	d="
M146.866272,45.727268 
	C140.563797,46.666157 137.427856,51.498608 138.670502,57.688499 
	C139.513031,61.885368 142.933701,64.186035 147.206848,63.052357 
	C149.047028,62.564152 150.679382,61.292610 152.673233,60.235317 
	C153.920227,61.363358 155.241318,62.558414 156.485764,63.684143 
	C153.962311,68.827263 148.273193,71.077927 142.057144,69.661774 
	C135.381866,68.140991 131.518768,63.032360 131.599991,55.833054 
	C131.698303,47.120251 136.228348,40.521866 143.040985,39.168335 
	C150.259781,37.734108 156.272232,40.784916 159.394989,47.679070 
	C156.645950,49.493126 154.152374,51.635994 151.210892,47.594906 
	C150.465866,46.571358 148.619568,46.349400 146.866272,45.727268 
z"/>
<path fill="#EC5A52" opacity="1.000000" stroke="none" 
	d="
M135.366699,131.366867 
	C137.363571,129.332397 139.243423,127.657234 140.832886,125.741188 
	C142.704819,123.484650 144.503799,123.094765 147.274948,124.391647 
	C149.925598,125.632126 151.183868,127.032074 150.831680,130.045990 
	C149.831940,138.601700 149.003464,147.177414 148.080200,156.006851 
	C144.125565,155.707367 141.307205,155.255447 141.997040,150.578262 
	C142.611755,146.410660 138.644791,146.545685 136.353439,145.556183 
	C134.956924,144.953110 132.085938,145.113327 131.363998,146.062057 
	C128.374191,149.991058 125.868668,148.213745 122.240349,145.860794 
	C126.732002,140.894775 130.926590,136.257187 135.366699,131.366867 
M142.074203,133.704239 
	C140.532822,135.504440 138.991425,137.304626 137.090469,139.524780 
	C139.453949,140.401260 140.943970,140.953842 142.913071,141.684067 
	C143.308487,139.467346 143.822998,137.717743 143.850754,135.960449 
	C143.865189,135.047531 143.019470,134.121033 142.074203,133.704239 
z"/>
<path fill="#219D7A" opacity="1.000000" stroke="none" 
	d="
M115.607643,111.783722 
	C114.108849,111.025047 112.542580,110.387459 111.951843,109.245300 
	C110.830215,107.076706 110.267136,104.619217 109.260513,101.659767 
	C106.264030,102.671570 103.527916,103.595451 100.262047,104.698219 
	C101.183243,108.095551 102.028954,111.214493 103.012390,114.841370 
	C101.174522,115.587051 99.437393,116.291855 96.999115,117.281143 
	C94.162720,108.157471 91.475105,99.512383 88.816658,90.961090 
	C93.873695,87.543449 93.873695,87.543449 98.524353,98.144669 
	C101.222260,97.364075 103.999146,96.560631 107.420723,95.570656 
	C106.655548,93.106628 105.608482,90.987885 105.453430,88.805756 
	C105.345703,87.289627 106.015205,85.036461 107.133179,84.263603 
	C109.168953,82.856247 110.671646,84.064934 111.417038,86.490181 
	C113.610847,93.628128 116.095970,100.679649 118.123909,107.861893 
	C118.403709,108.852859 116.743004,110.391747 115.607643,111.783722 
z"/>
<path fill="#FCECD7" opacity="1.000000" stroke="none" 
	d="
M142.318253,133.452454 
	C143.019470,134.121033 143.865189,135.047531 143.850754,135.960449 
	C143.822998,137.717743 143.308487,139.467346 142.913071,141.684067 
	C140.943970,140.953842 139.453949,140.401260 137.090469,139.524780 
	C138.991425,137.304626 140.532822,135.504440 142.318253,133.452454 
z"/>
</svg>